<svg xmlns="http://www.w3.org/2000/svg" viewBox="0 0 256.28 256.28"><defs><style>.cls-1{fill:#2e3192;}.cls-2{fill:#b0bec5;}.cls-3{fill:#333;}.cls-4{fill:none;}.cls-5{opacity:0.47;}.cls-6{fill:#607d8b;}</style></defs><title>Tavola disegno 2</title><g id="Livello_3" data-name="Livello 3"><path class="cls-1" d="M86.59,192.09h0a75.93,75.93,0,0,0,27,10.91h0c.37.09.74.16,1.11.21l.26,0a14.67,14.67,0,0,0,16.38-12.47c.05-.47.1-.94.13-1.41A76.2,76.2,0,0,0,97,119.07l-1.44-.91-.23-.15L59.56,94.78l-9.18-6-3.2,4.92L24.67,79.12A14.65,14.65,0,0,1,20.26,59l.16-.24.27-.41a128.15,128.15,0,0,1,229.94,107.5h0a5.82,5.82,0,0,1-8.76,3.3L215.8,152.24l3.2-4.92-15.15-9.84-30-19.5a5.81,5.81,0,0,1,3.55-10.67h.12a14.66,14.66,0,0,0,13.24-22.8l-.07-.11a76.07,76.07,0,0,0-21-20.24h0a75.79,75.79,0,0,0-26.94-10.9c-.28-.06-.55-.12-.82-.16a14.66,14.66,0,0,0-14.73,6.47,14.5,14.5,0,0,0-2.24,6.07,0,0,0,0,0,0,0c0,.32-.07.64-.08,1a76.18,76.18,0,0,0,34.44,70.56l1.44.91.23.15,35.78,23.23,9.18,6,3.2-4.92,22.51,14.62a14.64,14.64,0,0,1,4.3,20.25c-.11.18-.22.34-.35.5l0,0A128.15,128.15,0,0,1,5.67,90.41a5.82,5.82,0,0,1,8.76-3.3L40.5,104,37.3,109l15.15,9.84,30,19.5A5.81,5.81,0,0,1,78.93,149a.3.3,0,0,1-.12,0,14.65,14.65,0,0,0-13.32,22.67c.16.25.33.49.51.72A75.79,75.79,0,0,0,86.59,192.09Z"/><path class="cls-1" d="M86.59,192.09h0a75.93,75.93,0,0,0,27,10.91h0c.37.09.74.16,1.11.21l.26,0a14.67,14.67,0,0,0,16.38-12.47c.05-.47.1-.94.13-1.41A76.2,76.2,0,0,0,97,119.07l-1.44-.91-.23-.15L59.56,94.78l-9.18-6-3.2,4.92L24.67,79.12A14.65,14.65,0,0,1,20.26,59l.16-.24.27-.41a128.15,128.15,0,0,1,229.94,107.5h0a5.82,5.82,0,0,1-8.76,3.3L215.8,152.24l3.2-4.92-15.15-9.84-30-19.5a5.81,5.81,0,0,1,3.55-10.67h.12a14.66,14.66,0,0,0,13.24-22.8l-.07-.11a76.07,76.07,0,0,0-21-20.24h0a75.79,75.79,0,0,0-26.94-10.9c-.28-.06-.55-.12-.82-.16a14.66,14.66,0,0,0-14.73,6.47,14.5,14.5,0,0,0-2.24,6.07,0,0,0,0,0,0,0c0,.32-.07.64-.08,1a76.18,76.18,0,0,0,34.44,70.56l1.44.91.23.15,35.78,23.23,9.18,6,3.2-4.92,22.51,14.62a14.64,14.64,0,0,1,4.3,20.25c-.11.18-.22.34-.35.5l0,0A128.15,128.15,0,0,1,5.67,90.41a5.82,5.82,0,0,1,8.76-3.3L40.5,104,37.3,109l15.15,9.84,30,19.5A5.81,5.81,0,0,1,78.93,149a.3.3,0,0,1-.12,0,14.65,14.65,0,0,0-13.32,22.67c.16.25.33.49.51.72A75.79,75.79,0,0,0,86.59,192.09Z"/><path class="cls-2" d="M86.59,192.09h0a75.93,75.93,0,0,0,27,10.91h0c.37.09.74.16,1.11.21l.26,0a14.67,14.67,0,0,0,16.38-12.47c.05-.47.1-.94.13-1.41A76.2,76.2,0,0,0,97,119.07l-1.44-.91-.23-.15L59.56,94.78l-9.18-6-3.2,4.92L24.67,79.12A14.65,14.65,0,0,1,20.26,59l.16-.24.27-.41a128.15,128.15,0,0,1,229.94,107.5h0a5.82,5.82,0,0,1-8.76,3.3L215.8,152.24l3.2-4.92-15.15-9.84-30-19.5a5.81,5.81,0,0,1,3.55-10.67h.12a14.66,14.66,0,0,0,13.24-22.8l-.07-.11a76.07,76.07,0,0,0-21-20.24h0a75.79,75.79,0,0,0-26.94-10.9c-.28-.06-.55-.12-.82-.16a14.66,14.66,0,0,0-14.73,6.47,14.5,14.5,0,0,0-2.24,6.07,0,0,0,0,0,0,0c0,.32-.07.64-.08,1a76.18,76.18,0,0,0,34.44,70.56l1.44.91.23.15,35.78,23.23,9.18,6,3.2-4.92,22.51,14.62a14.64,14.64,0,0,1,4.3,20.25c-.11.18-.22.34-.35.5l0,0A128.15,128.15,0,0,1,5.67,90.41a5.82,5.82,0,0,1,8.76-3.3L40.5,104,37.3,109l15.15,9.84,30,19.5A5.81,5.81,0,0,1,78.93,149a.3.3,0,0,1-.12,0,14.65,14.65,0,0,0-13.32,22.67c.16.25.33.49.51.72A75.79,75.79,0,0,0,86.59,192.09Z"/><path class="cls-3" d="M232,53l-1-1.41Z"/><path class="cls-3" d="M65.66,240l-1.74-1Z"/><path class="cls-4" d="M169.67,64.17h0q1.65,1.07,3.23,2.22-1.58-1.14-3.23-2.22Z"/><path class="cls-4" d="M141.91,53.1a14.66,14.66,0,0,0-2.1-.2,14.67,14.67,0,0,1,2.1.2c.27,0,.54.1.82.16a75.32,75.32,0,0,1,13.8,4.07,75.32,75.32,0,0,0-13.8-4.07C142.45,53.21,142.18,53.15,141.91,53.1Z"/><path class="cls-4" d="M124.93,65.68c0,.11,0,.22,0,.32,0-.11,0-.22,0-.32a0,0,0,0,1,0,0,14.36,14.36,0,0,1,.76-3.11,14.36,14.36,0,0,0-.76,3.11A0,0,0,0,0,124.93,65.68Z"/><path class="cls-4" d="M127.18,59.58a14.67,14.67,0,0,0-1.48,3,14.7,14.7,0,0,1,7-8A14.58,14.58,0,0,0,127.18,59.58Z"/><path class="cls-4" d="M176,68.8q-1.33-1.07-2.73-2.09C174.24,67.39,175.16,68.08,176,68.8Z"/><path class="cls-4" d="M147.08,127.36a76.55,76.55,0,0,1-5.46-6A75.7,75.7,0,0,0,147.08,127.36Z"/><path class="cls-4" d="M139.36,118.4c.72,1,1.46,1.95,2.23,2.89C140.81,120.34,140.08,119.37,139.36,118.4Z"/><path class="cls-4" d="M136.85,114.79q1.08,1.66,2.24,3.27Q137.93,116.45,136.85,114.79Z"/><path class="cls-4" d="M176.2,68.93q3,2.41,5.64,5.05Q179.17,71.34,176.2,68.93Z"/><path class="cls-3" d="M126.13,88.6a76.39,76.39,0,0,1-1.28-22c0-.22,0-.43.06-.65,0,.22,0,.43-.06.65A76.38,76.38,0,0,0,126.13,88.6Z"/><path class="cls-3" d="M136.85,114.79l0,0a76,76,0,0,1-4.66-8.29,76,76,0,0,0,4.66,8.29Z"/><path class="cls-3" d="M169.67,64.17q-3.17-2.06-6.47-3.77Q166.49,62.11,169.67,64.17Z"/><path class="cls-3" d="M135.65,53.41a14.75,14.75,0,0,1,4.15-.5A14.75,14.75,0,0,0,135.65,53.41Z"/><path class="cls-3" d="M173.31,66.7l-.4-.31Z"/><path class="cls-3" d="M127.65,94.71q.88,3,2,6Q128.53,97.73,127.65,94.71Z"/><path class="cls-3" d="M141.58,121.29l0,0Z"/><path class="cls-3" d="M176.2,68.93,176,68.8Z"/><path class="cls-3" d="M139.1,118.06l.26.34Z"/><g class="cls-5"><path class="cls-6" d="M235.57,197.91c.13-.16.23-.32.35-.5a14.64,14.64,0,0,0-4.3-20.25l-22.51-14.62-3.2,4.92-9.18-6L161,138.27l-.23-.15-1.44-.91a76.49,76.49,0,0,1-12.22-9.86h0l.67.67.67.67.67.67.67.67.67.67.67.67.67.67.67.67.67.67.67.67.67.67.67.67.67.67.67.67.67.67.67.67.67.67.67.67.67.67.67.67.67.67.67.67.67.67.67.67.67.67.67.67.67.67.67.67.67.67.67.67.67.67.67.67.67.67.67.67.67.67.67.67.67.67.67.67.67.67.67.67.67.67.67.67.67.67.67.67.67.67.67.67.67.67.67.67.67.67.67.67.67.67.67.67.67.67.67.67.67.67.67.67.67.67.67.67.67.67.67.67.67.67.67.67.67.67.67.67.67.67.67.67.67.67.67.67.67.67.67.67.67.67.67.67.67.67.67.67.67.67.67.67.67.67.67.67.67.67.67.67.67.67.67.67.67.67.67.67.67.67.67.67.67.67.67.67.67.67.67.67.67.67.67.67.67.67.67.67.67.67.67.67.67.67.67.67.67.67.67.67.67.67.67.67.67.67.67.67.67.67.67.67.67.67.67.67.67.67.67.67.67.67.67.67.67.67.67.67.67.67.67.67.67.67.67.67.67.67.67.67.67.67.37.37c2.65-3.31,5.18-6.77,7.54-10.4Z"/><path class="cls-6" d="M253.79,145.93l-.67-.67-.67-.67-.67-.67-.67-.67-.67-.67-.67-.67-.67-.67-.67-.67-.67-.67-.67-.67-.67-.67-.67-.67-.67-.67-.67-.67-.67-.67-.67-.67-.67-.67-.67-.67-.67-.67-.67-.67-.67-.67-.67-.67-.67-.67-.67-.67-.67-.67-.67-.67-.67-.67-.67-.67-.67-.67-.67-.67-.67-.67-.67-.67-.67-.67-.67-.67-.67-.67-.67-.67-.67-.67-.67-.67-.67-.67-.67-.67-.67-.67-.67-.67-.67-.67-.67-.67-.67-.67-.67-.67-.67-.67-.67-.67-.67-.67-.67-.67-.67-.67-.67-.67-.67-.67-.67-.67-.67-.67-.67-.67-.67-.67-.67-.67-.67-.67-.67-.67-.67-.67-.67-.67-.67-.67-.67-.67-.67-.67-.67-.67-.67-.67-.67-.67-.67-.67-.67-.67-.67-.67-.67-.67-.67-.67-.67-.67-.67-.67-.67-.67-.67-.67-.67-.67-.67-.67-.67-.67-.67-.67-.67-.67-.67-.67-.67-.67-.67-.67-.67-.67-.67-.67-.67-.67-.67-.67-.67-.67-.67-.67-.67-.67-.67-.67-.67-.67-.67-.67-.67-.67-.67-.67-.67-.67-.67-.67-.67-.67-.67-.67-.67-.67-.67-.67-.67-.67-.67-.67-.67-.67-.67-.67-.67-.67h0a75.74,75.74,0,0,1,8.81,10.43l.07.11a14.66,14.66,0,0,1-13.24,22.8h-.12A5.81,5.81,0,0,0,173.81,118l30,19.5L219,147.32l-3.2,4.92,26.07,16.93a5.82,5.82,0,0,0,8.76-3.3h0A127.32,127.32,0,0,0,254.88,147l-.43-.43Z"/><path class="cls-6" d="M50.38,88.82h0c.07-.11.12-.22.18-.33l-.19.33Z"/><path class="cls-6" d="M51.16,89.32l.09-.16-.09.16Z"/><path class="cls-6" d="M100.46,121.45l.39.3Z"/><path class="cls-6" d="M103.78,124l.11.09Z"/><path class="cls-6" d="M207.8,227.51l-.67-.67-.67-.67-.67-.67-.67-.67-.67-.67-.67-.67-.67-.67-.67-.67-.67-.67-.67-.67-.67-.67-.67-.67-.67-.67-.67-.67-.67-.67-.67-.67-.67-.67-.67-.67-.67-.67-.67-.67-.67-.67-.67-.67-.67-.67-.67-.67-.67-.67-.67-.67-.67-.67-.67-.67-.67-.67-.67-.67-.67-.67-.67-.67-.67-.67-.67-.67-.67-.67-.67-.67-.67-.67-.67-.67-.67-.67-.67-.67-.67-.67-.67-.67-.67-.67-.67-.67-.67-.67-.67-.67-.67-.67-.67-.67-.67-.67-.67-.67-.67-.67-.67-.67-.67-.67-.67-.67-.67-.67-.67-.67-.67-.67-.67-.67-.67-.67-.67-.67-.67-.67-.67-.67-.67-.67-.67-.67-.67-.67-.67-.67-.67-.67-.67-.67-.67-.67-.67-.67-.67-.67-.67-.67-.67-.67-.67-.67-.67-.67-.67-.67-.67-.67-.67-.67-.67-.67-.67-.67-.67-.67-.67-.67-.67-.67-.67-.67-.67-.67-.67-.67-.67-.67-.67-.67-.67-.67-.67-.67-.67-.67-.67-.67-.67-.67-.67-.67-.67-.67-.67-.67-.67-.67-.67-.67-.67-.67-.67-.67-.67-.67-.67-.67-.67-.67-.67-.67-.67-.67-.67-.67-.67-.67-.67-.67-.67-.67-.67-.67-.67-.67-.67-.67-.67-.67-.67-.67-.67-.67-.67-.67-.67-.67-.67-.67-.67-.67-.67-.67-.67-.67-.67-.67-.67-.67-.67-.67-.67-.67-.67-.67-.67-.67-.67-.67-.67-.67-.67-.67-.67-.67-.67-.67-.67-.67-.67-.67-.67-.67-.67-.67-.67-.67-.67-.67-.67-.67-.67-.67-.67-.67-.67-.67-.67-.67-.67-.67-.67-.67-.67-.67-.67-.67a75.56,75.56,0,0,1,9.57,11.93,76.46,76.46,0,0,1,12,47.86c0,.47-.07.94-.13,1.41A14.67,14.67,0,0,1,115,203.26l-.26,0c-.37-.05-.74-.12-1.11-.21h0a75.93,75.93,0,0,1-27-10.91h0a76.21,76.21,0,0,1-13.33-11q1.3,1.39,2.69,2.72l.67.67.67.67.67.67.67.67.67.67.67.67.67.67.67.67.67.67.67.67.67.67.67.67.67.67.67.67.67.67.67.67.67.67.67.67.67.67.67.67.67.67.67.67.67.67.67.67.67.67.67.67.67.67.67.67.67.67.67.67.67.67.67.67.67.67.67.67.67.67.67.67.67.67.67.67.67.67.67.67.67.67.67.67.67.67.67.67.67.67.67.67.67.67.67.67.67.67.67.67.67.67.67.67.67.67.67.67.67.67.67.67.67.67.67.67.67.67.67.67.67.67.67.67.67.67.67.67.67.67.67.67.67.67.67.67.67.67.67.67.67.67.67.67.67.67.67.67.67.67.67.67.67.67.67.67.67.67.67.67.67.67.67.67.67.67.67.67.67.67.67.67.67.67.67.67.67.67.67.67.67.67.67.67.67.67.67.67.67.67.67.67.67.67.67.67.67.67.67.67.67.67.67.67.67.67.67.67.67.67.67.67.44.44a128.25,128.25,0,0,0,61.35-26.81Z"/><path class="cls-6" d="M71,178.7l.59.66Z"/><path class="cls-6" d="M68.79,176c.32.39.64.79,1,1.17Z"/><path class="cls-6" d="M66,172.36c.6.85,1.23,1.68,1.87,2.51C67.22,174,66.59,173.2,66,172.36Z"/><path class="cls-6" d="M67.66,152.92l.09-.08Z"/><path class="cls-6" d="M67,153.61l-.15.16Z"/><path class="cls-6" d="M66.24,154.46l-.16.2Z"/><path class="cls-6" d="M82.48,138.3l-30-19.5L37.3,109,40.5,104,14.43,87.11a5.81,5.81,0,0,0-6.49.11h0A4.8,4.8,0,0,0,6.7,88.38a6.85,6.85,0,0,0-1.09,2.14l.67.67h0l.67.67h0l.67.67h0l.67.67h0l.67.67h0l.67.67h0l.67.67h0l.67.67h0l.67.67h0l.67.67h0l.67.66h0l.67.67h0l.67.66h0l.67.66h0l.67.66h0l.67.66h0l.67.66h0l.67.66h0l.67.66h0l.67.66h0l.67.66h0l.67.66h0l.67.66h0l.67.66h0l.67.66v0h0l.67.66v0h0l.67.66v0l.67.66v0l.67.66v0l.67.66v0l.66.66v0l.67.66v0l.66.66v0l.67.66v0l.66.66v0l.66.66v0l.66.66v0l.66.66v0l.66.66v0l.66.66v0l.66.66v0l.66.66v0l.66.66v0l.66.66v0l.66.66v0l.66.66v0l.66.66v0l.66.66v0l.66.66v0l.66.66v0l.66.66v0l.66.66v0l.66.66v0l.66.66v0l.66.66v0l.66.66v0l.66.66v0l.66.66v0l.66.66v0l0,0,.66.66v0l0,0,.66.66v0l0,0,.66.66v0l0,0,.66.66v0l0,0,.66.66v0l0,0,.66.66v0l0,0,.66.66v0l0,0,.66.66v0l0,0,.66.66v0l0,0,.66.66v0l0,0,.66.66v0l0,0,.66.66,0,0,0,0,.66.66,0,0,0,0,.66.66,0,0,0,0,.66.66,0,0,0,0,.66.66,0,0,0,0,.66.66,0,0,0,0,.66.66,0,0,0,0,.66.66,0,0,0,0,.66.66,0,0,0,0,.66.66,0,0,0,0,.66.66,0,0,0,0,.66.66,0,0,0,0,.66.66,0,.05,0,0,.66.66,0,.05,0,0,.66.66,0,.05,0,0,.66.66,0,.05,0,0,.66.66,0,.05,0,0,.66.66,0,.05,0,0,.66.66,0,.05,0,0,.66.66,0,.05,0-.05.66.66,0,.06,0-.05.66.66,0,.06,0-.05.66.66,0,.06,0-.05.29.29s1.32-1.07,2-1.5q.45-.28.91-.53l.14-.08A14.69,14.69,0,0,1,78.8,149a.3.3,0,0,0,.13,0,5.81,5.81,0,0,0,3.55-10.67Z"/><path class="cls-6" d="M50.4,88.83l-.66-.68c.06-.11.12-.21.18-.32l-.18.32-.66-.67c.06-.1.11-.21.17-.31l-.18.31-.66-.67c.06-.1.1-.2.17-.3l-.17.29-.66-.67c.06-.1.1-.19.16-.29l-.17.28-.66-.67c.06-.09.1-.19.15-.28l-.16.27-.66-.67c.05-.09.09-.18.15-.27l-.15.26-.66-.67c.05-.09.09-.17.14-.26l-.15.25-.66-.67c0-.08.09-.16.14-.25l-.14.24-.66-.67.13-.24-.13.23-.66-.67.13-.22-.13.22-.66-.67.12-.21-.12.21-.66-.67.11-.2-.12.2L41.81,80l.11-.19-.11.19-.66-.67.1-.18-.1.18-.66-.67.09-.17-.1.17L39.83,78l.09-.16-.09.16-.66-.67.08-.15-.09.15-.66-.67.08-.14-.08.14L37.85,76l.07-.13-.07.12-.66-.67.06-.12-.07.11-.66-.67.06-.11-.06.1-.66-.68.05-.09-.05.09-.66-.68,0-.08,0,.08-.66-.68,0-.07,0,.07-.66-.68,0-.06,0,.06-.66-.68,0-.05,0,.05-.66-.68,0,0,0,0-.66-.68,0,0,0,0-.66-.68v0l-.66-.68h0l-9.9-10.16a20.26,20.26,0,0,0-1.24,2.17h0l-.05.09c0,.07-.06.15-.09.23a11.28,11.28,0,0,0-1.19,4.26v0a14.62,14.62,0,0,0,6.55,14L47.18,93.74l.11-.17h0Z"/></g></g></svg>