<?xml version="1.0" encoding="utf-8"?>
<svg viewBox="0 0 256.28 256.28" xmlns="http://www.w3.org/2000/svg">
  <defs>
    <style>.cls-1{fill:#2e3192;}.cls-2{fill:#b0bec5;}.cls-3{fill:#333;}.cls-4{fill:none;}.cls-5{opacity:0.47;}.cls-6{fill:#607d8b;}</style>
  </defs>
  <title>Tavola disegno 2</title>
  <path class="cls-2" d="M 88.692 178.799 L 88.692 178.799 C 95.897 183.526 103.94 186.801 112.38 188.447 L 112.38 188.447 C 112.704 188.527 113.029 188.589 113.353 188.633 L 113.581 188.633 C 120.556 189.531 126.954 184.62 127.952 177.605 C 127.996 177.189 128.039 176.773 128.066 176.358 C 130.113 151.611 118.493 127.735 97.825 114.222 L 96.562 113.417 L 96.36 113.285 L 64.979 92.741 L 56.925 87.435 L 54.117 91.786 L 34.369 78.892 C 28.463 75.03 26.738 67.097 30.5 61.098 L 30.641 60.886 L 30.878 60.523 C 78.041 -12.627 186.073 -6.88 225.337 70.868 C 238.578 97.088 241.184 127.47 232.606 155.593 L 232.606 155.593 C 231.67 158.923 227.804 160.391 224.921 158.51 L 202.049 143.557 L 204.857 139.206 L 191.565 130.503 L 165.246 113.258 C 161.955 111.104 162.212 106.166 165.708 104.371 C 166.527 103.95 167.444 103.76 168.361 103.822 L 168.466 103.822 C 178.34 104.553 185.296 94.235 180.988 85.249 C 180.723 84.698 180.42 84.167 180.081 83.658 L 180.02 83.561 C 175.082 76.453 168.826 70.374 161.597 65.662 L 161.597 65.662 C 154.409 60.942 146.383 57.669 137.962 56.022 C 137.716 55.969 137.479 55.916 137.242 55.88 C 132.188 55.022 127.111 57.27 124.32 61.602 C 123.272 63.22 122.6 65.055 122.355 66.97 C 122.355 66.97 122.355 66.97 122.355 66.97 C 122.355 67.253 122.293 67.536 122.284 67.855 C 120.128 92.688 131.75 116.692 152.499 130.256 L 153.762 131.061 L 153.964 131.192 L 185.354 151.737 L 193.408 157.043 L 196.215 152.692 L 215.963 165.622 C 221.91 169.517 223.599 177.535 219.736 183.53 C 219.639 183.688 219.543 183.831 219.429 183.972 L 219.429 183.972 C 172.284 257.134 64.249 251.415 24.967 173.677 C 11.707 147.436 9.101 117.021 17.7 88.876 C 18.636 85.546 22.502 84.078 25.386 85.958 L 48.257 100.895 L 45.45 105.317 L 58.741 114.019 L 85.06 131.264 C 88.342 133.432 88.066 138.368 84.562 140.148 C 83.761 140.557 82.868 140.743 81.972 140.691 C 81.937 140.698 81.902 140.698 81.867 140.691 C 72 139.95 65.039 150.256 69.337 159.239 C 69.584 159.758 69.867 160.259 70.181 160.74 C 70.321 160.961 70.47 161.173 70.628 161.377 C 75.503 168.283 81.632 174.195 88.692 178.799 Z" style="fill: rgb(255, 255, 255);"/>
  <path class="cls-3" d="M 232 53 L 231 51.59 Z"/>
  <path class="cls-3" d="M 65.66 240 L 63.92 239 Z"/>
  <path class="cls-4" d="M 169.67 64.17 L 169.67 64.17 C 170.77 64.883 171.847 65.623 172.9 66.39 C 171.847 65.63 170.77 64.89 169.67 64.17 Z"/>
  <path class="cls-4" d="M 141.91 53.1 C 141.216 52.983 140.514 52.916 139.81 52.9 C 140.514 52.916 141.216 52.983 141.91 53.1 C 142.18 53.1 142.45 53.2 142.73 53.26 C 147.449 54.173 152.07 55.536 156.53 57.33 C 152.07 55.536 147.449 54.173 142.73 53.26 C 142.45 53.21 142.18 53.15 141.91 53.1 Z"/>
  <path class="cls-4" d="M 124.93 65.68 C 124.93 65.79 124.93 65.9 124.93 66 C 124.93 65.89 124.93 65.78 124.93 65.68 C 124.93 65.68 124.93 65.68 124.93 65.68 C 125.067 64.618 125.322 63.575 125.69 62.57 C 125.322 63.575 125.067 64.618 124.93 65.68 C 124.93 65.68 124.93 65.68 124.93 65.68 Z"/>
  <path class="cls-4" d="M 127.18 59.58 C 126.574 60.52 126.077 61.527 125.7 62.58 C 126.954 59.133 129.45 56.28 132.7 54.58 C 130.458 55.741 128.556 57.464 127.18 59.58 Z"/>
  <path class="cls-4" d="M 176 68.8 C 175.113 68.087 174.203 67.39 173.27 66.71 C 174.24 67.39 175.16 68.08 176 68.8 Z"/>
  <path class="cls-4" d="M 147.08 127.36 C 145.155 125.458 143.333 123.455 141.62 121.36 C 143.331 123.456 145.154 125.459 147.08 127.36 Z"/>
  <path class="cls-4" d="M 139.36 118.4 C 140.08 119.4 140.82 120.35 141.59 121.29 C 140.81 120.34 140.08 119.37 139.36 118.4 Z"/>
  <path class="cls-4" d="M 136.85 114.79 C 137.57 115.897 138.317 116.987 139.09 118.06 C 138.317 116.987 137.57 115.897 136.85 114.79 Z"/>
  <path class="cls-4" d="M 176.2 68.93 C 178.2 70.537 180.08 72.22 181.84 73.98 C 180.06 72.22 178.18 70.537 176.2 68.93 Z"/>
  <path class="cls-3" d="M 126.13 88.6 C 124.642 81.367 124.211 73.957 124.85 66.6 C 124.85 66.38 124.85 66.17 124.91 65.95 C 124.91 66.17 124.91 66.38 124.85 66.6 C 124.211 73.957 124.642 81.367 126.13 88.6 Z"/>
  <path class="cls-3" d="M 136.85 114.79 L 136.85 114.79 C 135.125 112.127 133.569 109.358 132.19 106.5 C 133.569 109.358 135.125 112.127 136.85 114.79 Z"/>
  <path class="cls-3" d="M 169.67 64.17 C 167.557 62.797 165.4 61.54 163.2 60.4 C 165.393 61.54 167.55 62.797 169.67 64.17 Z"/>
  <path class="cls-3" d="M 135.65 53.41 C 137.003 53.047 138.4 52.879 139.8 52.91 C 138.4 52.879 137.003 53.047 135.65 53.41 Z"/>
  <path class="cls-3" d="M 173.31 66.7 L 172.91 66.39 Z"/>
  <path class="cls-3" d="M 127.65 94.71 C 128.237 96.71 128.903 98.71 129.65 100.71 C 128.903 98.723 128.237 96.723 127.65 94.71 Z"/>
  <path class="cls-3" d="M 141.58 121.29 L 141.58 121.29 Z"/>
  <path class="cls-3" d="M 176.2 68.93 L 176 68.8 Z"/>
  <path class="cls-3" d="M 139.1 118.06 L 139.36 118.4 Z"/>
  <path d="M 183.363 188.126 Z" style="stroke: black; fill: none;"/>
</svg>