<?xml version="1.0" encoding="utf-8"?>
<svg viewBox="0 0 256.28 256.28" xmlns="http://www.w3.org/2000/svg">
  <defs>
    <style>.cls-1{fill:#2e3192;}.cls-2{fill:#b0bec5;}.cls-3{fill:#333;}.cls-4{fill:none;}.cls-5{opacity:0.47;}.cls-6{fill:#607d8b;}</style>
  </defs>
  <title>Tavola disegno 2</title>
  <path class="cls-2" d="M 86.69 192.046 L 86.69 192.046 C 94.87 197.391 104.002 201.093 113.585 202.953 L 113.585 202.953 C 113.951 203.044 114.32 203.114 114.69 203.165 L 114.948 203.165 C 122.867 204.179 130.131 198.628 131.263 190.695 C 131.313 190.225 131.363 189.755 131.393 189.286 C 133.716 161.307 120.524 134.313 97.059 119.034 L 95.625 118.126 L 95.396 117.976 L 59.768 94.75 L 50.624 88.749 L 47.435 93.67 L 25.015 79.092 C 18.309 74.726 16.35 65.756 20.622 58.975 L 20.781 58.734 L 21.051 58.324 C 74.597 -24.379 197.25 -17.881 241.829 70.02 C 256.862 99.663 259.82 134.013 250.082 165.809 L 250.082 165.809 C 249.02 169.574 244.629 171.233 241.356 169.108 L 215.389 152.202 L 218.577 147.282 L 203.486 137.442 L 173.604 117.946 C 169.869 115.511 170.16 109.928 174.13 107.898 C 175.059 107.422 176.1 107.207 177.143 107.278 L 177.26 107.278 C 188.47 108.103 196.368 96.438 191.478 86.278 C 191.177 85.656 190.834 85.055 190.448 84.481 L 190.378 84.37 C 184.773 76.334 177.67 69.461 169.462 64.135 L 169.462 64.135 C 161.302 58.798 152.189 55.097 142.629 53.235 C 142.349 53.175 142.08 53.115 141.81 53.074 C 136.072 52.104 130.308 54.646 127.14 59.545 C 125.95 61.373 125.186 63.448 124.908 65.613 C 124.908 65.613 124.908 65.613 124.908 65.613 C 124.908 65.932 124.839 66.254 124.827 66.613 C 122.38 94.69 135.575 121.828 159.133 137.163 L 160.566 138.074 L 160.796 138.221 L 196.434 161.45 L 205.578 167.448 L 208.766 162.53 L 231.186 177.147 C 237.939 181.551 239.857 190.616 235.47 197.395 C 235.361 197.573 235.251 197.735 235.12 197.893 L 235.12 197.893 C 181.595 280.61 58.939 274.145 14.34 186.255 C -0.713 156.586 -3.673 122.199 6.089 90.38 C 7.151 86.615 11.541 84.955 14.816 87.081 L 40.782 103.968 L 37.595 108.967 L 52.685 118.806 L 82.566 138.302 C 86.293 140.754 85.978 146.335 82.001 148.347 C 81.092 148.809 80.077 149.021 79.061 148.961 C 79.02 148.969 78.981 148.969 78.942 148.961 C 67.739 148.124 59.836 159.775 64.716 169.931 C 64.996 170.517 65.318 171.085 65.674 171.627 C 65.832 171.878 66.002 172.118 66.181 172.348 C 71.717 180.156 78.674 186.84 86.69 192.046 Z" style="fill: rgb(255, 110, 64);"/>
  <path class="cls-3" d="M 232 53 L 231 51.59 Z"/>
  <path class="cls-3" d="M 65.66 240 L 63.92 239 Z"/>
  <path class="cls-4" d="M 169.67 64.17 L 169.67 64.17 C 170.77 64.883 171.847 65.623 172.9 66.39 C 171.847 65.63 170.77 64.89 169.67 64.17 Z"/>
  <path class="cls-4" d="M 141.91 53.1 C 141.216 52.983 140.514 52.916 139.81 52.9 C 140.514 52.916 141.216 52.983 141.91 53.1 C 142.18 53.1 142.45 53.2 142.73 53.26 C 147.449 54.173 152.07 55.536 156.53 57.33 C 152.07 55.536 147.449 54.173 142.73 53.26 C 142.45 53.21 142.18 53.15 141.91 53.1 Z"/>
  <path class="cls-4" d="M 124.93 65.68 C 124.93 65.79 124.93 65.9 124.93 66 C 124.93 65.89 124.93 65.78 124.93 65.68 C 124.93 65.68 124.93 65.68 124.93 65.68 C 125.067 64.618 125.322 63.575 125.69 62.57 C 125.322 63.575 125.067 64.618 124.93 65.68 C 124.93 65.68 124.93 65.68 124.93 65.68 Z"/>
  <path class="cls-4" d="M 127.18 59.58 C 126.574 60.52 126.077 61.527 125.7 62.58 C 126.954 59.133 129.45 56.28 132.7 54.58 C 130.458 55.741 128.556 57.464 127.18 59.58 Z"/>
  <path class="cls-4" d="M 176 68.8 C 175.113 68.087 174.203 67.39 173.27 66.71 C 174.24 67.39 175.16 68.08 176 68.8 Z"/>
  <path class="cls-4" d="M 147.08 127.36 C 145.155 125.458 143.333 123.455 141.62 121.36 C 143.331 123.456 145.154 125.459 147.08 127.36 Z"/>
  <path class="cls-4" d="M 139.36 118.4 C 140.08 119.4 140.82 120.35 141.59 121.29 C 140.81 120.34 140.08 119.37 139.36 118.4 Z"/>
  <path class="cls-4" d="M 136.85 114.79 C 137.57 115.897 138.317 116.987 139.09 118.06 C 138.317 116.987 137.57 115.897 136.85 114.79 Z"/>
  <path class="cls-4" d="M 176.2 68.93 C 178.2 70.537 180.08 72.22 181.84 73.98 C 180.06 72.22 178.18 70.537 176.2 68.93 Z"/>
  <path class="cls-3" d="M 126.13 88.6 C 124.642 81.367 124.211 73.957 124.85 66.6 C 124.85 66.38 124.85 66.17 124.91 65.95 C 124.91 66.17 124.91 66.38 124.85 66.6 C 124.211 73.957 124.642 81.367 126.13 88.6 Z"/>
  <path class="cls-3" d="M 136.85 114.79 L 136.85 114.79 C 135.125 112.127 133.569 109.358 132.19 106.5 C 133.569 109.358 135.125 112.127 136.85 114.79 Z"/>
  <path class="cls-3" d="M 169.67 64.17 C 167.557 62.797 165.4 61.54 163.2 60.4 C 165.393 61.54 167.55 62.797 169.67 64.17 Z"/>
  <path class="cls-3" d="M 135.65 53.41 C 137.003 53.047 138.4 52.879 139.8 52.91 C 138.4 52.879 137.003 53.047 135.65 53.41 Z"/>
  <path class="cls-3" d="M 173.31 66.7 L 172.91 66.39 Z"/>
  <path class="cls-3" d="M 127.65 94.71 C 128.237 96.71 128.903 98.71 129.65 100.71 C 128.903 98.723 128.237 96.723 127.65 94.71 Z"/>
  <path class="cls-3" d="M 141.58 121.29 L 141.58 121.29 Z"/>
  <path class="cls-3" d="M 176.2 68.93 L 176 68.8 Z"/>
  <path class="cls-3" d="M 139.1 118.06 L 139.36 118.4 Z"/>
  <path d="M 183.363 188.126 Z" style="stroke: black; fill: none;"/>
</svg>